# xmcd CD database file
#
# Track frame offsets:
#	150
#	18906
#	49949
#	75291
#	97888
#	128296
#	153286
#	189622
#	198964
#	230223
#	240510
#
# Disc length: 3462 seconds
#
# Revision: 0
# Processed by: cddbd v1.5.2PL0 Copyright (c) Steve Scherf et al.
# Submitted via: CDex 1.51
#
DISCID=780d840b
DTITLE=3 Hands Clapping - Shaman dance
DYEAR=2008
DGENRE=Jazz
TTITLE0=Songs for Matt
TTITLE1=Guarabe
TTITLE2=Brazilian Suger*
TTITLE3=Shaman Dance
TTITLE4=Soft Shoulder
TTITLE5=First Proof
TTITLE6=Amadeo
TTITLE7=You are (2:02) voor Kas
TTITLE8=Street Life*
TTITLE9=Look What I Found !
TTITLE10=Yesterdays*
EXTD=YEAR: 2008
EXTT0=
EXTT1=
EXTT2=
EXTT3=
EXTT4=
EXTT5=
EXTT6=
EXTT7=
EXTT8=
EXTT9=
EXTT10=
PLAYORDER=
